GRFrun.mot
version=1
nRows=16
nColumns=37
inDegrees=yes
endheader
time	ground_force_calcn_l_vx	ground_force_calcn_l_vy	ground_force_calcn_l_vz	ground_force_calcn_l_px	ground_force_calcn_l_py	ground_force_calcn_l_pz	ground_torque_calcn_l_vx	ground_torque_calcn_l_vy	ground_torque_calcn_l_vz	ground_force_calcn_r_vx	ground_force_calcn_r_vy	ground_force_calcn_r_vz	ground_force_calcn_r_px	ground_force_calcn_r_py	ground_force_calcn_r_pz	ground_torque_calcn_r_vx	ground_torque_calcn_r_vy	ground_torque_calcn_r_vz	ground_force_hand_l_vx	ground_force_hand_l_vy	ground_force_hand_l_vz	ground_force_hand_l_px	ground_force_hand_l_py	ground_force_hand_l_pz	ground_torque_hand_l_vx	ground_torque_hand_l_vy	ground_torque_hand_l_vz	ground_force_hand_r_vx	ground_force_hand_r_vy	ground_force_hand_r_vz	ground_force_hand_r_px	ground_force_hand_r_py	ground_force_hand_r_pz	ground_torque_hand_r_vx	ground_torque_hand_r_vy	ground_torque_hand_r_vz
3.3166413              0              0              0              0              0              0              0              0              0     -273.88531      1091.7607     -515.77156      1.6478925  -1.008308e-16     0.26287222              0      55.075367              0              0              0              0      1.6243691     0.70262063    -0.22831745              0              0              0              0              0              0      1.7002311     0.68496879     0.32141979              0              0              0
3.3333079              0              0              0              0              0              0              0              0              0     -297.87158       1486.042     -498.88745       1.649377 -1.0104764e-16     0.26190073              0      60.635462              0              0              0              0       1.653141      0.7104325    -0.21760746              0              0              0              0              0              0      1.7282393     0.69121789     0.31596784              0              0              0
3.3499745              0              0              0              0              0              0              0              0              0     -310.47308      1788.6016     -468.48053      1.6494123 -1.0099343e-16     0.26043653              0       62.18686              0              0              0              0      1.6897474     0.73445848     -0.2144741              0              0              0              0              0              0      1.7651088     0.71148973     0.30636154              0              0              0
3.3666411              0              0              0              0              0              0              0              0              0     -308.20014      1949.9713     -419.76415      1.6480404 -1.0093922e-16      0.2586762              0      58.241138              0              0              0              0      1.7324665      0.7822749    -0.21999535              0              0              0              0              0              0      1.8105569     0.75326727     0.29433582              0              0              0
3.3833077              0              0              0              0              0              0              0              0              0     -297.33153      1983.2523     -359.74065      1.6454052 -1.0061396e-16     0.25685961              0      50.618208              0              0              0              0      1.7743476     0.85942428    -0.23434831              0              0              0              0              0              0      1.8588437     0.82323712     0.28207217              0              0              0
3.3999743              0              0              0              0              0              0              0              0              0     -288.71756      1950.1602      -302.8722      1.6418755 -1.0061396e-16     0.25516866              0      43.046632              0              0              0              0      1.8052961     0.96314061    -0.25412007              0              0              0              0              0              0      1.8987923     0.92109196     0.27090527              0              0              0
3.4166409              0              0              0              0              0              0              0              0              0     -289.66674      1918.5653     -262.31683      1.6380672 -1.0061396e-16     0.25409486              0      38.662078              0              0              0              0      1.8191276      1.0799758    -0.27277934              0              0              0              0              0              0      1.9204032      1.0353073     0.26118762              0              0              0
3.4333075              0              0              0              0              0              0              0              0              0     -298.32159      1915.3709     -241.96529      1.6337202 -1.0061396e-16     0.25525286              0      38.112663              0              0              0              0      1.8187567      1.1928829    -0.28648891              0              0              0              0              0              0      1.9233276      1.1482009     0.25332439              0              0              0
3.4333075              0              0              0              0              0              0              0              0              0              0              0              0              0              0              0              0              0              0              0              0              0      1.8126055      1.2919934    -0.29712655              0              0              0              0              0              0      1.9167099       1.247102     0.24795305              0              0              0
3.4333075              0              0              0              0              0              0              0              0              0              0              0              0              0              0              0              0              0              0              0              0              0      1.8067155      1.3772702    -0.30798044              0              0              0              0              0              0      1.9103923      1.3297948     0.24532559              0              0              0
3.4333075              0              0              0              0              0              0              0              0              0              0              0              0              0              0              0              0              0              0              0              0              0      1.8018448      1.4525746    -0.31936509              0              0              0              0              0              0      1.9081839      1.4008226     0.24515875              0              0              0
3.4333075              0              0              0              0              0              0              0              0              0              0              0              0              0              0              0              0              0              0              0              0              0      1.7964646      1.5204346    -0.32912966              0              0              0              0              0              0      1.9085769      1.4653909     0.24665667              0              0              0
3.5166405              0              0              0              0              0              0              0              0              0              0              0              0              0              0              0              0              0              0              0              0              0      1.7900164      1.5814516    -0.33534274              0              0              0              0              0              0      1.9091037      1.5263419     0.24848599              0              0              0
3.5333071              0              0              0              0              0              0              0              0              0              0              0              0              0              0              0              0              0              0              0              0              0         1.7835      1.6354877    -0.33775745              0              0              0              0              0              0       1.909162      1.5842056     0.24914619              0              0              0
3.5499737              0              0              0              0              0              0              0              0              0              0              0              0              0              0              0              0              0              0              0              0              0      1.7785061      1.6822798    -0.33754687              0              0              0              0              0              0       1.909885        1.63818     0.24752885              0              0              0
3.5666403              0              0              0              0              0              0              0              0              0              0              0              0              0              0              0              0              0              0              0              0              0      1.7762522      1.7215939     -0.3363197              0              0              0              0              0              0      1.9126157       1.686956     0.24311491              0              0              0
